<svg width="0" height="0" class="hidden">
  <symbol fill="none" xmlns="http://www.w3.org/2000/svg" viewBox="0 0 12 13" id="tg">
    <g clip-path="url(#clip0_1_15976)">
      <path d="M4.70847 8.09058L4.50997 10.8826C4.79397 10.8826 4.91697 10.7606 5.06447 10.6141L6.39597 9.34158L9.15497 11.3621C9.66097 11.6441 10.0175 11.4956 10.154 10.8966L11.965 2.41058L11.9655 2.41008C12.126 1.66208 11.695 1.36958 11.202 1.55308L0.556967 5.62858C-0.169533 5.91058 -0.158533 6.31558 0.433467 6.49908L3.15497 7.34558L9.47647 3.39008C9.77397 3.19308 10.0445 3.30208 9.82197 3.49908L4.70847 8.09058Z" fill="#5D6C7B"></path>
    </g>
    <defs>
      <clipPath id="clip0_1_15976">
        <rect width="12" height="12" fill="white" transform="translate(0 0.5)"></rect>
      </clipPath>
    </defs>
  </symbol>
  <symbol fill="none" xmlns="http://www.w3.org/2000/svg" viewBox="0 0 13 13" id="whatsap">
    <g clip-path="url(#clip0_1_15973)">
      <path d="M6.49685 0.503787C3.18509 0.50449 0.500956 3.18978 0.501659 6.50153C0.501893 7.64828 0.830971 8.7709 1.44982 9.73633L0.516884 12.1569C0.467202 12.2856 0.531289 12.4303 0.660026 12.48C0.688813 12.4911 0.719381 12.4968 0.75023 12.4967C0.778854 12.4969 0.807267 12.492 0.834181 12.4822L3.33271 11.5902C6.14383 13.341 9.842 12.4815 11.5928 9.67033C13.3436 6.85918 12.484 3.16104 9.67286 1.41026C8.71994 0.81675 7.61952 0.502686 6.49685 0.503787Z" fill="#5D6C7B"></path>
      <path d="M9.35557 7.52445C9.35557 7.52445 8.74344 7.22462 8.36016 7.02475C7.92642 6.80138 7.41672 7.21963 7.17686 7.4575C6.80356 7.3141 6.46261 7.09767 6.17396 6.82087C5.89711 6.53227 5.68068 6.19131 5.53732 5.81796C5.77519 5.57761 6.19244 5.06841 5.97008 4.63467C5.77269 4.2509 5.47038 3.63877 5.47038 3.63877C5.42796 3.55458 5.34178 3.50144 5.2475 3.50134H4.74781C4.02008 3.62703 3.49097 4.262 3.49855 5.00046C3.49855 5.78498 4.43749 7.29211 5.07063 7.92572C5.70377 8.55933 7.21087 9.49779 7.99589 9.49779C8.73435 9.50538 9.36932 8.97624 9.49501 8.24854V7.74884C9.49508 7.65356 9.44102 7.56654 9.35557 7.52445Z" fill="#F7F7F7"></path>
    </g>
    <defs>
      <clipPath id="clip0_1_15973">
        <rect width="12" height="12" fill="white" transform="translate(0.5 0.5)"></rect>
      </clipPath>
    </defs>
  </symbol>
  <symbol fill="none" xmlns="http://www.w3.org/2000/svg" viewBox="0 0 12 13" id="viber">
    <g clip-path="url(#clip0_1_15970)">
      <path d="M6.40796 7.27975C6.27072 7.41708 6.04815 7.41708 5.91082 7.27975L4.31323 5.68216C4.24731 5.61624 4.21023 5.52679 4.21023 5.43359C4.21023 5.3403 4.24731 5.25095 4.31323 5.18494L4.59723 4.90103L3.76309 4.06689L3.07974 4.75024C2.84976 4.98022 2.84985 5.3544 3.07974 5.58438L6.0086 8.51343C6.11929 8.62411 6.26742 8.685 6.42572 8.685C6.58401 8.685 6.73214 8.62402 6.84283 8.51334L7.52618 7.83008L6.69204 6.99585L6.40796 7.27975Z" fill="#5D6C7B"></path>
      <path d="M11.4957 4.73541C11.4957 3.60831 11.0541 2.54593 10.2519 1.74384C9.4498 0.941742 8.38742 0.5 7.26041 0.5H4.75085C4.75085 0.5 4.75085 0.5 4.75076 0.5C3.62384 0.5 2.56146 0.941742 1.75946 1.74374C0.957367 2.54584 0.515625 3.60831 0.515625 4.73532V6.70792C0.515625 7.58069 0.78186 8.42032 1.28558 9.13599C1.72998 9.76733 2.32764 10.2604 3.02444 10.5732V11.7062C3.02444 12.2921 3.35248 12.4999 3.63336 12.5C3.83405 12.5 4.03482 12.4009 4.23019 12.2057L5.49243 10.9432H7.2605C8.38751 10.9432 9.44989 10.5015 10.252 9.6994C11.0541 8.89731 11.4958 7.83493 11.4958 6.70792L11.4957 4.73541ZM8.27197 8.07864L7.33997 9.01056C7.09644 9.25409 6.77179 9.38803 6.42572 9.38803C6.07965 9.38803 5.755 9.254 5.51147 9.01056L2.58252 6.08151C2.07852 5.57733 2.07852 4.75711 2.58252 4.25302L3.51453 3.32111C3.58044 3.2551 3.6698 3.21811 3.76309 3.21811C3.85629 3.21811 3.94574 3.2551 4.01166 3.32111L5.34302 4.65247C5.40894 4.71838 5.44592 4.80783 5.44592 4.90103C5.44592 4.99423 5.40894 5.08368 5.34293 5.1496L5.05902 5.4335L6.15948 6.53397L6.44348 6.24997C6.58081 6.11273 6.80338 6.11273 6.94061 6.25006L8.27197 7.58142C8.33798 7.64734 8.37497 7.73679 8.37497 7.82999C8.37497 7.92328 8.33798 8.01273 8.27197 8.07864ZM5.73944 3.91299C5.73944 3.7189 5.89682 3.56143 6.091 3.56143C7.30911 3.56143 8.30017 4.5524 8.30017 5.77042C8.30017 5.9646 8.14279 6.12198 7.94861 6.12198C7.75452 6.12198 7.59705 5.9646 7.59705 5.77042C7.59705 4.94012 6.92148 4.26456 6.091 4.26456C5.89682 4.26456 5.73944 4.10718 5.73944 3.91299ZM9.45474 6.12216C9.26056 6.12216 9.10318 5.96469 9.10318 5.7706C9.10327 4.96594 8.78989 4.20953 8.22098 3.64053C7.65198 3.07162 6.89557 2.75824 6.09091 2.75824C5.89682 2.75824 5.73935 2.60086 5.73935 2.40668C5.73935 2.21259 5.89682 2.05511 6.09091 2.05511C7.08334 2.05511 8.01636 2.44165 8.71811 3.1434C9.41995 3.84515 9.8064 4.77817 9.8063 5.7706C9.8063 5.96469 9.64893 6.12216 9.45474 6.12216Z" fill="#5D6C7B"></path>
    </g>
    <defs>
      <clipPath id="clip0_1_15970">
        <rect width="12" height="12" fill="white" transform="translate(0 0.5)"></rect>
      </clipPath>
    </defs>
  </symbol>
  <symbol id="search" viewBox="0 0 16 16" fill="none" xmlns="http://www.w3.org/2000/svg">
  <g clip-path="url(#clip0_1_15988)">
  <path d="M15.9519 14.8499L10.758 9.65596C11.564 8.61396 11.9999 7.33997 11.9999 5.99997C11.9999 4.39598 11.374 2.89199 10.242 1.75799C9.10996 0.623997 7.60197 0 5.99997 0C4.39798 0 2.88999 0.625997 1.75799 1.75799C0.623997 2.88999 0 4.39598 0 5.99997C0 7.60197 0.625997 9.10996 1.75799 10.242C2.88999 11.376 4.39598 11.9999 5.99997 11.9999C7.33997 11.9999 8.61196 11.564 9.65396 10.76L14.8479 15.9519C14.8632 15.9672 14.8812 15.9793 14.9012 15.9875C14.9211 15.9958 14.9424 16 14.9639 16C14.9855 16 15.0068 15.9958 15.0267 15.9875C15.0466 15.9793 15.0647 15.9672 15.0799 15.9519L15.9519 15.0819C15.9672 15.0667 15.9793 15.0486 15.9875 15.0287C15.9958 15.0088 16 14.9875 16 14.9659C16 14.9444 15.9958 14.9231 15.9875 14.9032C15.9793 14.8833 15.9672 14.8652 15.9519 14.8499ZM9.16796 9.16796C8.31996 10.014 7.19597 10.48 5.99997 10.48C4.80398 10.48 3.67998 10.014 2.83199 9.16796C1.98599 8.31996 1.51999 7.19597 1.51999 5.99997C1.51999 4.80398 1.98599 3.67798 2.83199 2.83199C3.67998 1.98599 4.80398 1.51999 5.99997 1.51999C7.19597 1.51999 8.32196 1.98399 9.16796 2.83199C10.014 3.67998 10.48 4.80398 10.48 5.99997C10.48 7.19597 10.014 8.32196 9.16796 9.16796Z" fill="white"/>
  </g>
  <defs>
  <clipPath id="clip0_1_15988">
  <rect width="16" height="16" fill="white"/>
  </clipPath>
  </defs>
  </symbol>
  <symbol viewBox="0 0 15 15" fill="none" xmlns="http://www.w3.org/2000/svg" id="mark">
    <path d="M11.9468 1.84193C10.7591 0.654143 9.1798 0 7.50008 0C5.82034 0 4.24111 0.654114 3.05327 1.84193C1.86551 3.02969 1.21136 4.60886 1.21136 6.2886C1.21136 7.96834 1.86551 9.54757 3.05327 10.7354L7.18936 14.8713C7.27517 14.9571 7.38764 15 7.50008 15C7.61255 15 7.72502 14.9571 7.8108 14.8713L11.9467 10.7354C13.1345 9.5476 13.7887 7.96837 13.7887 6.28863C13.7887 4.60883 13.1346 3.02966 11.9468 1.84193ZM9.47505 8.26351C8.94753 8.79103 8.24616 9.08157 7.50011 9.08157C6.75406 9.08157 6.05269 8.79106 5.5252 8.26354C4.99765 7.73602 4.70714 7.03465 4.70714 6.2886C4.70714 5.54258 4.99765 4.84121 5.5252 4.31366C6.05269 3.78614 6.75406 3.49563 7.50011 3.49563C8.24616 3.49563 8.94753 3.78614 9.47505 4.31366C10.0026 4.84115 10.2931 5.54252 10.2931 6.28857C10.2931 7.03462 10.0025 7.73602 9.47505 8.26351Z" fill="white"/>
  </symbol>
  <symbol viewBox="0 0 16 16" fill="none" xmlns="http://www.w3.org/2000/svg" id="samokat">
    <g clip-path="url(#clip0_1_14920)">
    <path d="M12.9407 10.8467L10.3157 1.86234L12.0813 1.67171C12.4469 1.63109 12.7125 1.30296 12.6719 0.937337C12.6313 0.571712 12.3063 0.302962 11.9375 0.346712L6.84067 0.896712C6.47505 0.937337 6.20942 1.26546 6.25005 1.63109C6.28755 1.97171 6.57505 2.22484 6.91255 2.22484C6.93755 2.22484 6.95942 2.22484 6.98442 2.22171L8.97192 2.00921L11.6469 11.1842C11.1188 11.4936 10.7219 11.9936 10.5469 12.5873H5.45317C5.15942 11.5842 4.22505 10.8467 3.11255 10.8467C1.76567 10.8467 0.675049 11.9248 0.675049 13.253C0.675049 14.5811 1.76567 15.6592 3.11255 15.6592C4.22505 15.6592 5.15942 14.9248 5.45317 13.9186H10.5438C10.8375 14.9217 11.7719 15.6592 12.8844 15.6592C14.2313 15.6592 15.3219 14.5811 15.3219 13.253C15.3219 11.9405 14.2625 10.8748 12.9407 10.8467Z" fill="white"/>
    </g>
  <defs>
  <clipPath id="clip0_1_14920">
  <rect width="16" height="16" fill="white"/>
  </clipPath>
  </defs>
  </symbol>
  <symbol viewBox="0 0 16 16" fill="none" xmlns="http://www.w3.org/2000/svg" id="energy">
  <path d="M12.1998 0H6.19959L3.80035 8.63849H6.20448L4.16032 16H4.88044L11.8393 7.36114H8.31397L12.1998 0Z" fill="white"/>
  </symbol>
  <symbol viewBox="0 0 22 22" fill="none" xmlns="http://www.w3.org/2000/svg" id="check">
    <path d="M15.0168 7.58398H14.0092C13.79 7.58398 13.5816 7.68926 13.4527 7.86973L10.0754 12.5533L8.54566 10.4307C8.41676 10.2523 8.21051 10.1449 7.98922 10.1449H6.9816C6.84195 10.1449 6.76031 10.3039 6.84195 10.4178L9.51891 14.1303C9.58215 14.2185 9.66552 14.2905 9.7621 14.3401C9.85868 14.3897 9.9657 14.4156 10.0743 14.4156C10.1829 14.4156 10.2899 14.3897 10.3865 14.3401C10.483 14.2905 10.5664 14.2185 10.6297 14.1303L15.1543 7.85684C15.2381 7.74297 15.1564 7.58398 15.0168 7.58398Z" fill="#6F73EE"/>
    <path d="M11 1.375C5.68477 1.375 1.375 5.68477 1.375 11C1.375 16.3152 5.68477 20.625 11 20.625C16.3152 20.625 20.625 16.3152 20.625 11C20.625 5.68477 16.3152 1.375 11 1.375ZM11 18.9922C6.58711 18.9922 3.00781 15.4129 3.00781 11C3.00781 6.58711 6.58711 3.00781 11 3.00781C15.4129 3.00781 18.9922 6.58711 18.9922 11C18.9922 15.4129 15.4129 18.9922 11 18.9922Z" fill="#6F73EE"/>
  </symbol>
  <symbol viewBox="0 0 16 16" fill="none" xmlns="http://www.w3.org/2000/svg" id="checkbox">
  <rect width="16" height="16" rx="2" fill="white"/>
  <path d="M12.4688 3.84961C12.6699 3.84961 12.789 4.0837 12.6602 4.24414L12.6592 4.24316L6.9375 11.4961H6.93652C6.7256 11.7609 6.32265 11.7619 6.1123 11.4961L2.90234 7.42969C2.77666 7.27029 2.89024 7.0353 3.09375 7.03516H3.91309L4.03027 7.04883C4.06878 7.05769 4.10681 7.07051 4.14258 7.08789C4.21376 7.12255 4.2762 7.17315 4.3252 7.23535L6.52344 10.0215L11.2383 4.0498C11.3373 3.92341 11.4895 3.84973 11.6494 3.84961H12.4688Z" fill="#6F73EE" stroke="#6F73EE" stroke-width="0.3"/>
  </symbol>
</svg>